<?xml version="1.0" encoding="UTF-8"?>
<svg id="Layer_1" xmlns="http://www.w3.org/2000/svg" version="1.1" viewBox="0 0 305.4 255.8">
  <!-- Generator: Adobe Illustrator 29.3.1, SVG Export Plug-In . SVG Version: 2.1.0 Build 151)  -->
  <defs>
    <style>
      .st0 {
        fill: #fff;
      }
    </style>
  </defs>
  <path class="st0" d="M303.3,70.5l-24.9,39.8-12.5,20-12.5,19.9-91.5-.4-12.3,19.5,12.3,20.8,30.9,52.1c3.6,6-.8,13.6-7.7,13.5l-98.2-.4c-5.9,0-11.3-3.1-14.3-8.2l-47.7-80.5c-1.7-2.8-1.6-6.3.1-9l5.3-8.4,7.5-12,5-8,156.9.7,12.4-19.8h0c0-.1-.2-.2-.2-.2l-12.2-20.7-35.1-59.3c-.9-1.4-1.3-3-1.3-4.7h0c0-1.8,1.5-3.4,3.4-3.3h1v-1.5h-8.8s-74-.4-74-.4l-12.2,19.5,12.8,21.5,23.3,39.4c2.4,4-.5,9.1-5.2,9l-82.6-.3L2,76.9c-2.8-4.7-2.7-10.5.2-15.1L28.5,19.9l8.2-13.1C39.4,2.6,44.1,0,49.1,0l213.7.9c4.6,0,8.9,2.5,11.3,6.4l29.4,49.5c2.5,4.2,2.5,9.5-.2,13.7h0Z"/>
</svg>