<?xml version="1.0" encoding="UTF-8"?>
<svg id="Layer_1" xmlns="http://www.w3.org/2000/svg" xmlns:xlink="http://www.w3.org/1999/xlink" version="1.1" viewBox="0 0 432 122.4">
  <!-- Generator: Adobe Illustrator 29.3.1, SVG Export Plug-In . SVG Version: 2.1.0 Build 151)  -->
  <defs>
    <style>
      .st0 {
        fill: url(#linear-gradient2);
      }

      .st1 {
        fill: url(#linear-gradient1);
      }

      .st2 {
        fill: url(#linear-gradient9);
      }

      .st3 {
        fill: url(#linear-gradient3);
      }

      .st4 {
        fill: url(#linear-gradient6);
      }

      .st5 {
        fill: url(#linear-gradient8);
      }

      .st6 {
        fill: url(#linear-gradient7);
      }

      .st7 {
        fill: url(#linear-gradient5);
      }

      .st8 {
        fill: url(#linear-gradient4);
      }

      .st9 {
        fill: url(#linear-gradient13);
      }

      .st10 {
        fill: url(#linear-gradient12);
      }

      .st11 {
        fill: url(#linear-gradient15);
      }

      .st12 {
        fill: url(#linear-gradient11);
      }

      .st13 {
        fill: url(#linear-gradient10);
      }

      .st14 {
        fill: url(#radial-gradient);
      }

      .st15 {
        fill: url(#linear-gradient);
      }

      .st16 {
        fill: url(#linear-gradient14);
        opacity: .28;
      }
    </style>
    <linearGradient id="linear-gradient" x1="223.63" y1="21.95" x2="454" y2="-125.44" gradientUnits="userSpaceOnUse">
      <stop offset="0" stop-color="#85a3f9"/>
      <stop offset=".6" stop-color="#062169"/>
      <stop offset="1" stop-color="#021d64" stop-opacity="0"/>
    </linearGradient>
    <linearGradient id="linear-gradient1" x1="232.88" y1="36.41" x2="463.25" y2="-110.98" xlink:href="#linear-gradient"/>
    <linearGradient id="linear-gradient2" x1="240.16" y1="47.78" x2="470.52" y2="-99.6" xlink:href="#linear-gradient"/>
    <linearGradient id="linear-gradient3" x1="248.99" y1="61.58" x2="479.35" y2="-85.8" xlink:href="#linear-gradient"/>
    <linearGradient id="linear-gradient4" x1="255.79" y1="72.22" x2="486.16" y2="-75.17" xlink:href="#linear-gradient"/>
    <linearGradient id="linear-gradient5" x1="262.43" y1="82.59" x2="492.79" y2="-64.8" xlink:href="#linear-gradient"/>
    <linearGradient id="linear-gradient6" x1="269.07" y1="92.97" x2="499.43" y2="-54.42" xlink:href="#linear-gradient"/>
    <linearGradient id="linear-gradient7" x1="276.01" y1="103.82" x2="506.38" y2="-43.57" xlink:href="#linear-gradient"/>
    <linearGradient id="linear-gradient8" x1="280.61" y1="111.01" x2="510.97" y2="-36.38" xlink:href="#linear-gradient"/>
    <linearGradient id="linear-gradient9" x1="283.76" y1="115.92" x2="514.12" y2="-31.46" xlink:href="#linear-gradient"/>
    <linearGradient id="linear-gradient10" x1="291.99" y1="128.79" x2="522.35" y2="-18.6" xlink:href="#linear-gradient"/>
    <linearGradient id="linear-gradient11" x1="301.16" y1="143.13" x2="531.53" y2="-4.25" gradientUnits="userSpaceOnUse">
      <stop offset="0" stop-color="#85a3f9"/>
      <stop offset=".6" stop-color="#062169"/>
    </linearGradient>
    <linearGradient id="linear-gradient12" x1="300.93" y1="142.77" x2="531.29" y2="-4.62" xlink:href="#linear-gradient"/>
    <linearGradient id="linear-gradient13" x1="307.45" y1="152.96" x2="537.82" y2="5.58" xlink:href="#linear-gradient"/>
    <radialGradient id="radial-gradient" cx="122.68" cy="87.39" fx="122.68" fy="87.39" r="123.11" gradientUnits="userSpaceOnUse">
      <stop offset=".13" stop-color="#85a3f9"/>
      <stop offset=".65" stop-color="#062169"/>
      <stop offset=".71" stop-color="#041f67" stop-opacity=".72"/>
      <stop offset=".79" stop-color="#031e66" stop-opacity=".41"/>
      <stop offset=".87" stop-color="#021d64" stop-opacity=".18"/>
      <stop offset=".94" stop-color="#021d64" stop-opacity=".05"/>
      <stop offset="1" stop-color="#021d64" stop-opacity="0"/>
    </radialGradient>
    <linearGradient id="linear-gradient14" x1="19.71" y1="36.74" x2="43.51" y2="46.05" gradientUnits="userSpaceOnUse">
      <stop offset="0" stop-color="#85a3f9"/>
      <stop offset=".61" stop-color="#062169"/>
      <stop offset="1" stop-color="#021d64" stop-opacity="0"/>
    </linearGradient>
    <linearGradient id="linear-gradient15" x1="93.52" y1="106.7" x2="67.31" y2="9.44" xlink:href="#linear-gradient14"/>
  </defs>
  <g>
    <path class="st15" d="M119.18,96.53h-6.2v10.37h-3.55v-19.55c0-2.16,1.1-3.39,3.1-3.39v-.16h-3.1v-2.94h11.18c5.43,0,8.32,2.24,8.32,7.51s-2.77,8.16-9.75,8.16ZM112.98,93.8h6.2c4.37,0,6.16-1.84,6.16-5.26s-1.51-4.73-5.55-4.73h-6.81v10Z"/>
    <path class="st1" d="M153.7,106.9h-4.37l-7.3-10.69h-6.08v10.69h-3.55v-19.59c0-2.2,1.1-3.35,3.1-3.35v-.16h-3.1v-2.94h11.34c5.35,0,8.28,2.45,8.28,7.26s-2.94,7.79-9.47,7.79v.24h3.8l7.34,10.73ZM135.95,93.64h6.32c4.33,0,6.2-1.96,6.2-5.22,0-3.06-1.63-4.61-5.51-4.61h-7.02v9.83Z"/>
    <path class="st0" d="M168.06,80.5c7.88,0,12.61,4.65,12.61,13.34s-4.77,13.51-12.61,13.51-12.69-4.61-12.69-13.51,4.82-13.34,12.69-13.34ZM168.15,103.92c5.67,0,8.94-3.43,8.94-10.12,0-6.32-3.18-9.88-8.94-9.88s-9.18,3.55-9.18,9.88c0,6.77,3.35,10.12,9.18,10.12Z"/>
    <path class="st3" d="M203.73,106.9v-10.04h-.24c.16,6.28-3.75,10.49-9.43,10.49-6.94,0-11.71-4.69-11.71-13.47s5.06-13.43,12.57-13.43c6.86,0,11.67,3.79,12.61,10.94h-3.59c-.86-4.98-4.61-7.63-8.94-7.63-5.84,0-9.06,4.2-9.06,10,0,6.57,3.55,10.16,9.06,10.16,4.45,0,7.26-3.06,8.04-7.1h-7.22v-2.94h11.18v13.02h-3.26Z"/>
    <path class="st8" d="M232.58,106.9h-4.37l-7.3-10.69h-6.08v10.69h-3.55v-19.59c0-2.2,1.1-3.35,3.1-3.35v-.16h-3.1v-2.94h11.34c5.35,0,8.28,2.45,8.28,7.26s-2.94,7.79-9.47,7.79v.24h3.8l7.34,10.73ZM214.83,93.64h6.33c4.33,0,6.2-1.96,6.2-5.22,0-3.06-1.63-4.61-5.51-4.61h-7.02v9.83Z"/>
    <path class="st7" d="M239.23,92.45h13.34v2.78h-13.34v8.73h14.65v2.94h-18.2v-19.38c0-2.37,1.06-3.55,3.1-3.55v-.16h-3.1v-2.94h18.2v2.94h-14.65v8.65Z"/>
    <path class="st4" d="M264.73,91.6l6.61,1.06c5.35.82,7.06,3.88,7.06,7.35,0,4.37-3.43,7.34-10.9,7.34s-11.47-3.51-11.47-9.26h3.43c0,3.75,2.65,6.04,8.08,6.04,5.02,0,7.22-1.55,7.22-4.2,0-2.24-1.06-3.51-4.33-4.04l-6.28-1.06c-5.06-.78-7.26-3.55-7.26-7.02,0-4.28,3.1-7.26,10.41-7.26s10.49,3.35,10.49,8.98h-3.35c0-3.96-2.2-5.79-7.22-5.79s-6.77,1.88-6.77,4.04c0,1.92,1.31,3.39,4.28,3.84Z"/>
    <path class="st6" d="M288.64,91.6l6.61,1.06c5.35.82,7.06,3.88,7.06,7.35,0,4.37-3.43,7.34-10.9,7.34s-11.47-3.51-11.47-9.26h3.43c0,3.75,2.65,6.04,8.08,6.04,5.02,0,7.22-1.55,7.22-4.2,0-2.24-1.06-3.51-4.33-4.04l-6.28-1.06c-5.06-.78-7.26-3.55-7.26-7.02,0-4.28,3.1-7.26,10.41-7.26s10.49,3.35,10.49,8.98h-3.35c0-3.96-2.2-5.79-7.22-5.79s-6.77,1.88-6.77,4.04c0,1.92,1.31,3.39,4.28,3.84Z"/>
    <path class="st5" d="M305.62,80.86h3.51v26.04h-3.51v-26.04Z"/>
    <path class="st2" d="M331.86,80.86h3.75l-10.16,26.04h-4.28l-10.2-26.04h3.92l6.77,17.51c.98,2.77.86,4.73.25,7.79h.24l9.71-25.3Z"/>
    <path class="st13" d="M341,92.45h13.34v2.78h-13.34v8.73h14.65v2.94h-18.2v-19.38c0-2.37,1.06-3.55,3.1-3.55v-.16h-3.1v-2.94h18.2v2.94h-14.65v8.65Z"/>
    <path class="st12" d="M361.48,101.8c1.67,0,2.77,1.06,2.77,2.69,0,1.71-1.1,2.82-2.77,2.82s-2.73-1.1-2.73-2.82,1.02-2.69,2.73-2.69Z"/>
    <path class="st10" d="M368.13,80.86h3.63v22.93h14.77v3.1h-18.4v-26.04Z"/>
    <path class="st9" d="M393.35,93.76h-1.31v13.14h-3.43v-26.04h3.43v12.12h1.63l12.04-12.16h4.24l-6.04,6.2c-5.14,5.18-7.18,6.57-9.71,6.73h3.67l13.1,13.14h-4.37l-13.26-13.14Z"/>
  </g>
  <path class="st14" d="M52.33,107.35c-.84,0-1.77-.17-2.57-.55-1.08-.52-1.97-1.38-2.55-2.36l-17.19-28.74c-.52-.88-.51-2.35.03-3.22l2.07-3.32,4.25-6.84h56.14l4.42-7.11h0l-4.44-7.44-12.71-21.23c-.27-.45-.42-1.07-.42-1.6h0c0-.47.37-1.2,1.2-1.2l.7.03v-.94h-3.49s-26.66,0-26.66,0l-4.57,7.34,13.07,21.86c.3.5.38,1.11.16,1.64-.29.69-.93,1.12-1.66,1.12h-29.34l-6.79-11.34c-.93-1.56-.92-3.49.04-5.04l12.27-19.73c.89-1.43,2.42-2.28,4.11-2.28h76.46c1.53,0,2.94.8,3.73,2.11l10.61,17.65c.84,1.4,1.13,3.34.27,4.73l-17.75,28.58h-32.74l-4.36,7.01,4.44,7.44,11.12,18.58c.52.87.86,1.74.08,3.2-.59,1.1-1.75,1.65-2.83,1.65h-35.13Z"/>
  <path class="st16" d="M129.54,35.99l-10.61-17.65c-.85-1.42-2.38-2.28-4.04-2.28H38.43c-1.79,0-3.46.93-4.41,2.45l-2.92,4.69-9.35,15.04c-1.03,1.65-1.05,3.74-.05,5.41l6.89,11.52h29.54c1.66,0,2.69-1.81,1.84-3.24l-8.4-14.05-4.6-7.69,4.35-6.99h26.46s3.13,0,3.13,0v.55h-.34c-.66,0-1.2.54-1.2,1.2v.1c0,.53.14,1.05.42,1.5l12.71,21.23,4.4,7.38h.08l-.04.06-4.42,7.11h-56.14l-1.78,2.86-2.67,4.29-1.88,3.02c-.61.98-.62,2.22-.03,3.22l17.19,28.74c1.08,1.8,3.02,2.9,5.12,2.9h35.13c2.49,0,4.03-2.71,2.75-4.85l-11.12-18.58-4.44-7.44,4.36-7.01h32.74l4.44-7.15,4.44-7.17,8.86-14.27c.93-1.5.95-3.4.04-4.91ZM129.2,40.71l-8.86,14.27-4.44,7.17-4.14,7.33h-32.74l-4.78,7.01,4.55,7.62,11.06,18.47c.52.87.62,1.96.15,2.87-.5.97-1.46,1.55-2.53,1.55h-35.13c-1.97,0-3.8-1.04-4.81-2.73l-17.19-28.74c-.52-.88-.51-1.97.03-2.84l1.88-3.02,4.34-6.98h56.14l4.49-7.76-4.71-7.14-12.71-21.23c-.27-.45-.42-1.07-.42-1.6h0c0-.47.38-1.2,1.2-1.2l.7.03v-.94h-3.49s-26.66,0-26.66,0l-4.57,7.34,13.07,21.86c.3.5.38,1.11.16,1.64-.29.69-.93,1.12-1.66,1.12h-29.34l-6.79-11.34c-.93-1.56-.92-3.49.04-5.04l12.27-19.73c.89-1.43,2.42-2.28,4.11-2.28h76.46c1.53,0,2.94.8,3.73,2.11l10.61,17.65c.84,1.4.83,3.15-.03,4.54Z"/>
  <path class="st11" d="M129.84,35.8l-10.61-17.65c-.92-1.52-2.56-2.46-4.34-2.46H38.43c-1.92,0-3.7.99-4.71,2.62l-12.27,19.74c-1.1,1.77-1.12,3.99-.05,5.78l6.99,11.69h29.64c.86,0,1.7-.38,2.18-1.1.55-.82.58-1.84.08-2.68l-12.88-21.55,4.13-6.64h26.05s2.3,0,2.3,0c-.51.26-.86.78-.86,1.39v.1c0,.59.16,1.18.47,1.68l12.71,21.23,4.33,7.25-4.2,6.75h-56.14l-4.55,7.31-1.88,3.02c-.69,1.1-.7,2.47-.03,3.59l17.19,28.74c1.14,1.9,3.22,3.08,5.43,3.08h34.98c1.27,0,2.5-.6,3.17-1.68.72-1.16.72-2.56.03-3.71l-11.12-18.58-4.33-7.25,4.15-6.66h32.74l4.55-7.31,4.44-7.17,8.86-14.27c1-1.61,1.02-3.65.04-5.28ZM129.5,40.9l-8.86,14.27-4.44,7.17-4.44,7.15h-32.74l-4.36,7.01,4.44,7.44,11.12,18.58c1.28,2.14-.26,4.85-2.75,4.85h-35.13c-2.1,0-4.04-1.1-5.12-2.9l-17.19-28.74c-.59-.99-.58-2.23.03-3.22l1.88-3.02,2.67-4.29,1.78-2.86h56.14l4.42-7.11.03-.05h-.07s-4.4-7.39-4.4-7.39l-12.66-21.15c-.3-.51-.47-1.09-.47-1.68h0c0-.66.54-1.2,1.2-1.2h.34v-.55h-3.13s-26.46,0-26.46,0l-4.35,6.99,4.6,7.69,8.4,14.05c.85,1.43-.18,3.24-1.84,3.24h-29.54l-6.89-11.52c-1-1.67-.98-3.76.05-5.41l9.35-15.04,2.92-4.69c.95-1.52,2.61-2.45,4.41-2.45h76.46c1.65,0,3.19.87,4.04,2.28l10.61,17.65c.91,1.51.9,3.41-.04,4.91Z"/>
</svg>