<?xml version="1.0" encoding="UTF-8"?>
<svg id="Layer_1" xmlns="http://www.w3.org/2000/svg" xmlns:xlink="http://www.w3.org/1999/xlink" version="1.1" viewBox="0 0 304.43 304.33">
  <!-- Generator: Adobe Illustrator 29.3.1, SVG Export Plug-In . SVG Version: 2.1.0 Build 151)  -->
  <defs>
    <style>
      .st0 {
        fill: url(#linear-gradient1);
      }

      .st1 {
        fill: url(#radial-gradient);
      }

      .st2 {
        fill: url(#linear-gradient);
        opacity: .28;
      }
    </style>
    <radialGradient id="radial-gradient" cx="254.16" cy="207.77" fx="254.16" fy="207.77" r="266.53" gradientUnits="userSpaceOnUse">
      <stop offset=".13" stop-color="#85a3f9"/>
      <stop offset=".65" stop-color="#062169"/>
      <stop offset=".71" stop-color="#041f67" stop-opacity=".72"/>
      <stop offset=".79" stop-color="#031e66" stop-opacity=".41"/>
      <stop offset=".87" stop-color="#021d64" stop-opacity=".18"/>
      <stop offset=".94" stop-color="#021d64" stop-opacity=".05"/>
      <stop offset="1" stop-color="#021d64" stop-opacity="0"/>
    </radialGradient>
    <linearGradient id="linear-gradient" x1="31.25" y1="98.13" x2="82.77" y2="118.29" gradientUnits="userSpaceOnUse">
      <stop offset="0" stop-color="#85a3f9"/>
      <stop offset=".61" stop-color="#062169"/>
      <stop offset="1" stop-color="#021d64" stop-opacity="0"/>
    </linearGradient>
    <linearGradient id="linear-gradient1" x1="191.04" y1="249.59" x2="134.29" y2="39.04" xlink:href="#linear-gradient"/>
  </defs>
  <path class="st1" d="M101.87,250.98c-1.82,0-3.83-.36-5.56-1.19-2.34-1.12-4.27-2.99-5.53-5.1l-37.21-62.21c-1.14-1.9-1.11-5.08.06-6.96l4.48-7.19,9.21-14.81h121.54l9.57-15.39h0l-9.62-16.1-27.52-45.97c-.59-.98-.9-2.32-.9-3.46h0c0-1.01.8-2.6,2.6-2.6l1.51.07v-2.03h-7.55s-57.71,0-57.71,0l-9.88,15.9,28.29,47.32c.64,1.07.83,2.4.35,3.56-.62,1.5-2.01,2.42-3.58,2.42h-63.51l-14.69-24.55c-2.02-3.38-1.99-7.56.09-10.9l26.57-42.72c1.92-3.09,5.25-4.94,8.89-4.94h165.54c3.31,0,6.37,1.73,8.08,4.57l22.96,38.21c1.82,3.03,2.45,7.23.58,10.23l-38.42,61.86h-70.87l-9.45,15.18,9.62,16.1,24.07,40.22c1.13,1.89,1.86,3.77.18,6.93-1.27,2.39-3.8,3.57-6.13,3.57h-76.06Z"/>
  <path class="st2" d="M269.01,96.5l-22.96-38.21c-1.84-3.07-5.16-4.94-8.74-4.94H71.78c-3.89,0-7.49,2.01-9.55,5.31l-6.32,10.16-20.25,32.56c-2.22,3.58-2.26,8.09-.1,11.71l14.92,24.93h63.95c3.6,0,5.83-3.92,3.98-7.01l-18.18-30.41-9.95-16.64,9.41-15.14h57.28s6.77,0,6.77,0v1.19h-.74c-1.43,0-2.6,1.16-2.6,2.6v.21c0,1.14.31,2.27.9,3.25l27.52,45.97,9.53,15.97h.17l-.08.13-9.57,15.39h-121.54l-3.85,6.19-5.77,9.28-4.07,6.53c-1.32,2.12-1.35,4.81-.06,6.96l37.21,62.21c2.33,3.9,6.54,6.29,11.09,6.29h76.06c5.39,0,8.72-5.88,5.95-10.5l-24.07-40.22-9.62-16.1,9.45-15.18h70.87l9.62-15.47,9.62-15.51,19.19-30.88c2.02-3.25,2.05-7.35.08-10.63ZM268.28,106.72l-19.19,30.88-9.62,15.51-8.96,15.88h-70.87l-10.35,15.17,9.86,16.5,23.94,39.99c1.13,1.89,1.34,4.25.33,6.21-1.08,2.09-3.15,3.35-5.48,3.35h-76.06c-4.27,0-8.23-2.24-10.42-5.91l-37.21-62.21c-1.14-1.9-1.11-4.28.06-6.15l4.07-6.53,9.39-15.11h121.54l9.72-16.8-10.19-15.46-27.52-45.97c-.59-.98-.9-2.32-.9-3.46h0c0-1.01.82-2.6,2.6-2.6l1.51.07v-2.03h-7.55s-57.71,0-57.71,0l-9.88,15.9,28.29,47.32c.64,1.07.83,2.4.35,3.56-.62,1.5-2.01,2.42-3.58,2.42h-63.51l-14.69-24.55c-2.02-3.38-1.99-7.56.09-10.9l26.57-42.72c1.92-3.09,5.25-4.94,8.89-4.94h165.54c3.31,0,6.37,1.73,8.08,4.57l22.96,38.21c1.82,3.03,1.79,6.82-.07,9.83Z"/>
  <path class="st0" d="M269.68,96.1l-22.96-38.21c-1.98-3.3-5.55-5.32-9.4-5.32H71.78c-4.15,0-8.01,2.14-10.2,5.67l-26.57,42.72c-2.39,3.84-2.43,8.63-.11,12.51l15.14,25.31h64.16c1.86,0,3.68-.83,4.71-2.38,1.2-1.79,1.25-3.99.16-5.81l-27.89-46.64,8.93-14.37h56.4s4.98,0,4.98,0c-1.1.56-1.86,1.7-1.86,3.01v.21c0,1.28.35,2.55,1.01,3.65l27.52,45.97,9.37,15.7-9.1,14.61h-121.54l-9.84,15.83-4.07,6.53c-1.48,2.38-1.51,5.36-.07,7.76l37.21,62.21c2.46,4.11,6.96,6.66,11.75,6.66h75.73c2.75,0,5.42-1.3,6.87-3.63,1.55-2.5,1.57-5.53.07-8.04l-24.07-40.22-9.37-15.69,8.97-14.41h70.87l9.84-15.84,9.62-15.51,19.19-30.88c2.17-3.49,2.2-7.91.08-11.44ZM268.93,107.13l-19.19,30.88-9.62,15.51-9.62,15.47h-70.87l-9.45,15.18,9.62,16.1,24.07,40.22c2.77,4.62-.56,10.5-5.95,10.5h-76.06c-4.54,0-8.75-2.39-11.09-6.29l-37.21-62.21c-1.29-2.15-1.26-4.84.06-6.96l4.07-6.53,5.77-9.28,3.85-6.19h121.54l9.57-15.39.07-.1-.15-.03-9.53-15.97-27.41-45.79c-.66-1.1-1.01-2.36-1.01-3.65h0c0-1.43,1.16-2.6,2.6-2.6h.74v-1.19h-6.78s-57.28,0-57.28,0l-9.41,15.14,9.95,16.64,18.18,30.41c1.85,3.09-.38,7.01-3.98,7.01h-63.95l-14.92-24.93c-2.16-3.61-2.12-8.13.1-11.71l20.25-32.56,6.32-10.16c2.05-3.3,5.66-5.31,9.55-5.31h165.54c3.58,0,6.9,1.88,8.74,4.94l22.96,38.21c1.97,3.28,1.94,7.38-.08,10.63Z"/>
</svg>