<?xml version="1.0" encoding="UTF-8"?>
<svg id="Layer_1" xmlns="http://www.w3.org/2000/svg" xmlns:xlink="http://www.w3.org/1999/xlink" version="1.1" viewBox="0 0 432 122.4">
  <!-- Generator: Adobe Illustrator 29.3.1, SVG Export Plug-In . SVG Version: 2.1.0 Build 151)  -->
  <defs>
    <style>
      .st0 {
        fill: url(#linear-gradient2);
      }

      .st1 {
        fill: url(#linear-gradient1);
      }

      .st2 {
        fill: url(#linear-gradient9);
      }

      .st3 {
        fill: url(#linear-gradient3);
      }

      .st4 {
        fill: url(#linear-gradient6);
      }

      .st5 {
        fill: url(#linear-gradient8);
      }

      .st6 {
        fill: url(#linear-gradient7);
      }

      .st7 {
        fill: url(#linear-gradient5);
      }

      .st8 {
        fill: url(#linear-gradient4);
      }

      .st9 {
        fill: url(#linear-gradient13);
      }

      .st10 {
        fill: url(#linear-gradient12);
      }

      .st11 {
        fill: url(#linear-gradient11);
      }

      .st12 {
        fill: url(#linear-gradient10);
      }

      .st13 {
        fill: url(#linear-gradient);
      }

      .st14 {
        fill: #638eff;
        font-family: MiguerSans-Regular, 'Miguer Sans';
        font-size: 4.17px;
        letter-spacing: -.05em;
      }
    </style>
    <linearGradient id="linear-gradient" x1="168.71" y1="-28.71" x2="466.61" y2="-219.3" gradientUnits="userSpaceOnUse">
      <stop offset="0" stop-color="#85a3f9"/>
      <stop offset=".6" stop-color="#062169"/>
      <stop offset="1" stop-color="#021d64" stop-opacity="0"/>
    </linearGradient>
    <linearGradient id="linear-gradient1" x1="180.67" y1="-10.01" x2="478.57" y2="-200.61" xlink:href="#linear-gradient"/>
    <linearGradient id="linear-gradient2" x1="190.08" y1="4.7" x2="487.98" y2="-185.9" xlink:href="#linear-gradient"/>
    <linearGradient id="linear-gradient3" x1="201.5" y1="22.55" x2="499.4" y2="-168.05" xlink:href="#linear-gradient"/>
    <linearGradient id="linear-gradient4" x1="210.29" y1="36.3" x2="508.2" y2="-154.3" xlink:href="#linear-gradient"/>
    <linearGradient id="linear-gradient5" x1="218.88" y1="49.71" x2="516.78" y2="-140.89" xlink:href="#linear-gradient"/>
    <linearGradient id="linear-gradient6" x1="227.46" y1="63.13" x2="525.36" y2="-127.47" xlink:href="#linear-gradient"/>
    <linearGradient id="linear-gradient7" x1="236.44" y1="77.17" x2="534.35" y2="-113.43" xlink:href="#linear-gradient"/>
    <linearGradient id="linear-gradient8" x1="242.39" y1="86.46" x2="540.29" y2="-104.14" xlink:href="#linear-gradient"/>
    <linearGradient id="linear-gradient9" x1="246.46" y1="92.82" x2="544.36" y2="-97.78" xlink:href="#linear-gradient"/>
    <linearGradient id="linear-gradient10" x1="257.1" y1="109.45" x2="555" y2="-81.14" xlink:href="#linear-gradient"/>
    <linearGradient id="linear-gradient11" x1="268.97" y1="128" x2="566.87" y2="-62.59" gradientUnits="userSpaceOnUse">
      <stop offset="0" stop-color="#85a3f9"/>
      <stop offset=".6" stop-color="#062169"/>
    </linearGradient>
    <linearGradient id="linear-gradient12" x1="268.67" y1="127.53" x2="566.57" y2="-63.07" xlink:href="#linear-gradient"/>
    <linearGradient id="linear-gradient13" x1="277.1" y1="140.72" x2="575" y2="-49.88" xlink:href="#linear-gradient"/>
  </defs>
  <g>
    <path class="st13" d="M33.63,67.74h-8.02v13.4h-4.59v-25.28c0-2.8,1.42-4.38,4.01-4.38v-.21h-4.01v-3.8h14.46c7.02,0,10.77,2.9,10.77,9.71s-3.59,10.55-12.61,10.55ZM25.61,64.21h8.02c5.65,0,7.97-2.37,7.97-6.81s-1.95-6.12-7.18-6.12h-8.81v12.93Z"/>
    <path class="st1" d="M78.28,81.15h-5.65l-9.45-13.83h-7.86v13.83h-4.59v-25.33c0-2.85,1.42-4.33,4.01-4.33v-.21h-4.01v-3.8h14.67c6.91,0,10.71,3.17,10.71,9.39s-3.8,10.08-12.24,10.08v.32h4.91l9.5,13.88ZM55.32,64h8.18c5.59,0,8.02-2.53,8.02-6.75,0-3.96-2.11-5.96-7.12-5.96h-9.08v12.72Z"/>
    <path class="st0" d="M96.85,47c10.18,0,16.31,6.02,16.31,17.26s-6.17,17.47-16.31,17.47-16.41-5.96-16.41-17.47,6.23-17.26,16.41-17.26ZM96.96,77.29c7.34,0,11.56-4.43,11.56-13.09,0-8.18-4.12-12.77-11.56-12.77s-11.87,4.59-11.87,12.77c0,8.76,4.33,13.09,11.87,13.09Z"/>
    <path class="st3" d="M142.97,81.15v-12.98h-.32c.21,8.13-4.86,13.56-12.19,13.56-8.97,0-15.15-6.07-15.15-17.41s6.54-17.36,16.25-17.36c8.87,0,15.09,4.91,16.31,14.14h-4.64c-1.11-6.44-5.96-9.87-11.56-9.87-7.55,0-11.72,5.44-11.72,12.93,0,8.5,4.59,13.14,11.72,13.14,5.75,0,9.39-3.96,10.4-9.18h-9.34v-3.8h14.46v16.83h-4.22Z"/>
    <path class="st8" d="M180.28,81.15h-5.65l-9.45-13.83h-7.86v13.83h-4.59v-25.33c0-2.85,1.42-4.33,4.01-4.33v-.21h-4.01v-3.8h14.67c6.91,0,10.71,3.17,10.71,9.39s-3.8,10.08-12.24,10.08v.32h4.91l9.5,13.88ZM157.32,64h8.18c5.59,0,8.02-2.53,8.02-6.75,0-3.96-2.11-5.96-7.12-5.96h-9.08v12.72Z"/>
    <path class="st7" d="M188.88,62.47h17.26v3.59h-17.26v11.29h18.95v3.8h-23.54v-25.07c0-3.06,1.37-4.59,4.01-4.59v-.21h-4.01v-3.8h23.54v3.8h-18.95v11.19Z"/>
    <path class="st4" d="M221.86,61.36l8.55,1.37c6.91,1.06,9.13,5.01,9.13,9.5,0,5.65-4.43,9.5-14.09,9.5s-14.83-4.54-14.83-11.98h4.43c0,4.85,3.43,7.81,10.45,7.81,6.49,0,9.34-2.01,9.34-5.44,0-2.9-1.37-4.54-5.59-5.22l-8.13-1.37c-6.54-1-9.39-4.59-9.39-9.08,0-5.54,4.01-9.39,13.46-9.39s13.56,4.33,13.56,11.61h-4.33c0-5.12-2.85-7.49-9.34-7.49s-8.76,2.43-8.76,5.23c0,2.48,1.69,4.38,5.54,4.96Z"/>
    <path class="st6" d="M252.78,61.36l8.55,1.37c6.91,1.06,9.13,5.01,9.13,9.5,0,5.65-4.43,9.5-14.09,9.5s-14.83-4.54-14.83-11.98h4.43c0,4.85,3.43,7.81,10.45,7.81,6.49,0,9.34-2.01,9.34-5.44,0-2.9-1.37-4.54-5.59-5.22l-8.13-1.37c-6.54-1-9.39-4.59-9.39-9.08,0-5.54,4.01-9.39,13.46-9.39s13.56,4.33,13.56,11.61h-4.33c0-5.12-2.85-7.49-9.34-7.49s-8.76,2.43-8.76,5.23c0,2.48,1.69,4.38,5.54,4.96Z"/>
    <path class="st5" d="M274.73,47.48h4.54v33.67h-4.54v-33.67Z"/>
    <path class="st2" d="M308.66,47.48h4.85l-13.14,33.67h-5.54l-13.19-33.67h5.07l8.76,22.64c1.27,3.59,1.11,6.12.32,10.08h.32l12.56-32.72Z"/>
    <path class="st12" d="M320.48,62.47h17.26v3.59h-17.26v11.29h18.95v3.8h-23.54v-25.07c0-3.06,1.37-4.59,4.01-4.59v-.21h-4.01v-3.8h23.54v3.8h-18.95v11.19Z"/>
    <path class="st11" d="M346.97,74.55c2.16,0,3.59,1.37,3.59,3.48,0,2.22-1.43,3.64-3.59,3.64s-3.54-1.42-3.54-3.64,1.32-3.48,3.54-3.48Z"/>
    <path class="st10" d="M355.57,47.48h4.7v29.66h19.1v4.01h-23.8v-33.67Z"/>
    <path class="st9" d="M388.18,64.15h-1.69v16.99h-4.43v-33.67h4.43v15.67h2.11l15.57-15.73h5.49l-7.81,8.02c-6.65,6.7-9.29,8.5-12.56,8.71h4.75l16.94,16.99h-5.65l-17.15-16.99Z"/>
  </g>
  <text class="st14" transform="translate(404.72 44.22)"><tspan x="0" y="0">TM</tspan></text>
</svg>