<?xml version="1.0" encoding="UTF-8"?>
<svg id="Layer_1" data-name="Layer 1" xmlns="http://www.w3.org/2000/svg" viewBox="0 0 259.01 259.01">
  <defs>
    <style>
      .cls-1 {
        fill: #565656;
      }
    </style>
  </defs>
  <path class="cls-1" d="M94.32,43.31c20.64-1.3,48-1.27,68.69-.21,31.27,1.6,51.15,20.96,52.85,52.29,1.11,20.4,1.08,47.19.03,67.61-1.6,31.25-20.94,51.15-52.29,52.85-20.4,1.11-47.19,1.08-67.61.03-31.67-1.62-51.27-21.25-52.89-52.89-1.04-20.31-1.04-46.71,0-67.02,1.57-30.7,20.3-50.73,51.22-52.68ZM91.96,55.44c-19.91,2.02-35.12,18.32-36.72,38.11,4.46,38.22-17.44,102.55,37.74,110.17,37.98-4.42,103.29,17.53,110.73-37.71-4.74-36.82,17.07-98.46-33.12-109.97-24.88.29-54.04-3.09-78.63-.59Z"/>
  <path class="cls-1" d="M172.57,129.5c0,23.79-19.29,43.07-43.07,43.07s-43.07-19.29-43.07-43.07,19.29-43.07,43.07-43.07,43.07,19.29,43.07,43.07ZM159.83,129.5c0-16.75-13.58-30.33-30.33-30.33s-30.33,13.58-30.33,30.33,13.58,30.33,30.33,30.33,30.33-13.58,30.33-30.33Z"/>
  <circle class="cls-1" cx="176.44" cy="82.55" r="7.84"/>
</svg>