<?xml version="1.0" encoding="UTF-8"?>
<svg id="Layer_1" data-name="Layer 1" xmlns="http://www.w3.org/2000/svg" viewBox="0 0 550.3 259.01">
  <defs>
    <style>
      .cls-1 {
        fill: #565656;
      }
    </style>
  </defs>
  <path class="cls-1" d="M84.11,80.17l39.43.06,21.87,102.93,4.21.24,22.37-103.23h39.48v107.62l-1.91,1.91h-18.47v-92.34c0-1.53,4.29-10.48,3.82-10.81l-6.43.8-22.19,101.11c-.93,1.43-2.38,1.14-3.78,1.31-5.07.64-26.05.81-30.64-.06-1.48-.28-2.58-.43-2.94-2.16l-22.02-100.89-6.24-.12,3.83,14.63-1.2,87.97-19.19.56v-109.53Z"/>
  <rect class="cls-1" x="231.85" y="124.75" width="109.53" height="20.38"/>
  <path class="cls-1" d="M466.19,81.45s-6.74,5.41-15.52,12.09c-.7.53-1.46.99-2.25,1.42l-36.66,26.09-10.58-8.09c-13.97-9.52-35.6-28.38-43.25-31.52v22.29l42.03,31.83-42.03,30.58v22.29c7.49-3.43,31.56-24,45.41-32.91l9.1-6.66,16.74,12.8c3.5,2.61,7.24,5.5,10.98,8.39h0c10.66,8.26,21.25,16.53,26.03,18.38v-22.29l-42.88-31.2,42.88-31.2v-22.29Z"/>
</svg>