<?xml version="1.0" encoding="UTF-8"?>
<svg id="Layer_1" data-name="Layer 1" xmlns="http://www.w3.org/2000/svg" viewBox="0 0 374.87 259.01">
  <defs>
    <style>
      .cls-1 {
        fill: #565656;
      }
    </style>
  </defs>
  <path class="cls-1" d="M98.26,136.05c-.76,0-1.33.57-1.42,1.42l-2.18,26.6,2.18,25.74c.09.76.66,1.42,1.42,1.42s1.33-.57,1.42-1.42l2.47-25.74-2.47-26.6c-.09-.85-.76-1.42-1.42-1.42Z"/>
  <path class="cls-1" d="M107.94,137.76c-.85,0-1.61.66-1.61,1.61l-1.99,24.7,1.99,25.93c.09.95.76,1.61,1.61,1.61s1.52-.66,1.61-1.61l2.28-25.93-2.28-24.7c-.09-.95-.76-1.61-1.61-1.61Z"/>
  <path class="cls-1" d="M79.07,141.18c-.47,0-.95.38-1.04.95l-2.37,21.85,2.37,21.37c.09.57.47.95,1.04.95.47,0,.95-.38,1.04-.95l2.75-21.37-2.75-21.85c-.19-.47-.57-.95-1.04-.95Z"/>
  <path class="cls-1" d="M70.05,149.54c-.47,0-.95.38-.95.95l-1.8,13.58,1.8,13.3c.09.57.47.95.95.95s.85-.38.95-.95l2.09-13.3-2.09-13.49c-.09-.57-.47-1.04-.95-1.04Z"/>
  <path class="cls-1" d="M127.61,112.68c-1.14,0-1.99.85-2.09,1.99l-1.8,49.39,1.8,25.84c.09,1.14.95,1.99,2.09,1.99s1.99-.85,2.09-1.99l1.99-25.84-1.99-49.39c-.09-1.14-1.04-1.99-2.09-1.99Z"/>
  <path class="cls-1" d="M88.57,136.9c-.66,0-1.14.47-1.23,1.23l-2.28,25.93,2.28,24.98c.09.66.57,1.23,1.23,1.23s1.14-.47,1.23-1.14l2.56-24.98-2.56-25.93c-.09-.76-.57-1.33-1.23-1.33Z"/>
  <path class="cls-1" d="M117.73,122.09c-.95,0-1.8.76-1.8,1.8l-1.9,40.18,1.9,25.93c.09,1.04.85,1.8,1.8,1.8s1.8-.76,1.8-1.8l2.18-25.93-2.18-40.18c0-1.04-.85-1.8-1.8-1.8Z"/>
  <path class="cls-1" d="M178.04,99.2c-1.71,0-3.04,1.33-3.04,3.04l-1.14,61.74,1.14,24.79c0,1.71,1.42,3.04,3.04,3.04,1.71,0,3.04-1.42,3.04-3.04l1.33-24.79-1.33-61.74c.09-1.61-1.33-3.04-3.04-3.04Z"/>
  <path class="cls-1" d="M137.48,108.31c-1.23,0-2.18.95-2.28,2.28l-1.71,53.48,1.71,25.55c0,1.23,1.04,2.18,2.28,2.18s2.18-.95,2.28-2.28l1.9-25.55-1.9-53.48c0-1.14-1.04-2.18-2.28-2.18Z"/>
  <path class="cls-1" d="M280.53,132.15c-4.08,0-7.98.85-11.59,2.28-2.37-26.98-24.98-48.06-52.53-48.06-6.74,0-13.3,1.33-19.09,3.61-2.28.85-2.85,1.8-2.85,3.51v94.89c0,1.8,1.42,3.32,3.23,3.51h82.92c16.53,0,29.92-13.39,29.92-29.92-.09-16.43-13.49-29.82-30.01-29.82Z"/>
  <path class="cls-1" d="M188.3,93.4c-1.8,0-3.23,1.52-3.32,3.32l-1.33,67.34,1.33,24.41c0,1.8,1.52,3.23,3.32,3.23s3.23-1.52,3.32-3.32l1.42-24.51-1.42-67.34c-.09-1.61-1.52-3.13-3.32-3.13Z"/>
  <path class="cls-1" d="M147.55,106.32c-1.33,0-2.37,1.04-2.47,2.47l-1.52,55.28,1.52,25.36c0,1.33,1.14,2.47,2.47,2.47s2.37-1.04,2.47-2.47l1.71-25.36-1.71-55.28c-.09-1.42-1.14-2.47-2.47-2.47Z"/>
  <path class="cls-1" d="M157.62,107.55c-1.42,0-2.66,1.14-2.66,2.66l-1.42,53.86,1.42,25.17c0,1.52,1.23,2.66,2.66,2.66s2.66-1.14,2.66-2.66l1.61-25.17-1.61-53.86c0-1.52-1.14-2.66-2.66-2.66Z"/>
  <path class="cls-1" d="M167.78,109.26c-1.61,0-2.85,1.23-2.85,2.85l-1.33,51.96,1.33,24.98c0,1.61,1.33,2.85,2.85,2.85,1.61,0,2.85-1.23,2.85-2.85l1.42-24.98-1.42-51.96c0-1.52-1.23-2.85-2.85-2.85Z"/>
</svg>