<?xml version="1.0" encoding="UTF-8"?>
<svg id="Layer_1" data-name="Layer 1" xmlns="http://www.w3.org/2000/svg" viewBox="0 0 259.01 259.01">
  <defs>
    <style>
      .cls-1 {
        fill: #565656;
      }
    </style>
  </defs>
  <path class="cls-1" d="M159.77,49.57c-.48,15.84,10.43,30.14,25.17,35.17,3.71,1.27,7.62,2.11,11.56,1.89v26.43c-3.3-.28-6.61-.5-9.88-.99-9.63-1.46-18.8-5.12-26.69-10.77v53.91c-.3,29.76-26.65,53.15-56.43,48.37-37.27-5.99-53.75-50.24-29.77-79.47,10.58-12.89,27.37-19.35,43.99-17.33v27.07c-11.5-3.58-23.71,2.36-27.88,13.61-4.51,12.18,2.24,26.02,14.74,29.57,15.05,4.27,29.07-7.34,28.77-22.64V49.57s26.42,0,26.42,0Z"/>
</svg>