<?xml version="1.0" encoding="UTF-8"?>
<svg id="Layer_1" data-name="Layer 1" xmlns="http://www.w3.org/2000/svg" viewBox="0 0 259.01 259.01">
  <defs>
    <style>
      .cls-1 {
        fill: #565656;
      }
    </style>
  </defs>
  <path class="cls-1" d="M134.34,197.97h-9.36c-.14-.22-.5-.13-.72-.13-16.27-.17-32.86-.2-49.05-1.71-9.31-.87-17.62-1.76-23.38-9.98-2.85-4.08-3.73-8.61-4.49-13.45-1.42-9.09-1.78-18.5-1.99-27.68l-.27-2.7c.04-2.33-.06-4.67,0-6.99.26-10.26.71-21.1,2.41-31.29,1.99-11.93,6.99-19.26,19.45-21.43,8.23-1.43,17.2-1.65,25.54-2.01,26.41-1.15,53.24-1.17,79.64.26,7.62.41,20.09.57,26.88,3.71,11.97,5.55,12.91,18.46,13.93,30.12,1.37,15.73,1.38,32.68,0,48.4-.62,7.03-1.47,17-5.48,22.87-5.71,8.35-14.1,9.29-23.46,10.17-16.25,1.52-33.34,1.69-49.64,1.85ZM112.71,113.56v50.52l43.78-25.32-43.78-25.19Z"/>
</svg>